<?xml version="1.0" encoding="UTF-8"?>
<svg id="Layer_2" data-name="Layer 2" xmlns="http://www.w3.org/2000/svg" version="1.1" viewBox="0 0 400 400">
  <path d="M228,322.7c-12,1.1-44.3,1.1-55,0-47.3-4.8-83.5-30.7-86.2-84.8-.4-8.2-.8-19.9,0-28.1,5.4-54.1,40.4-77.9,86.2-84.8,16-2.4,40.3-1,55,0,44.5,2.9,83.5,37.3,86.2,84.8.3,5.4.6,19.9,0,28.1-4,55.4-39.3,80.6-86.2,84.8Z" fill="#fff" stroke-width="0"/>
  <path d="M235.2,322.1c-12.7,1.2-48.3,2.6-59.5,1.4-49.8-5.1-73.7-26.9-85-66.6,11.3,26.9,50.2,36.2,60.9,36.8,22.7,1.4,65.4,1,80.8-1.4,53.9-8.5,82.2-39.7,79.4-95,12.8,77.9-27.2,120.2-76.5,124.7Z" fill="#e0d8ce" stroke-width="0"/>
  <g>
    <path d="M358.5,167.6v108.4c19.6-9.6,33.2-30.3,33.2-54.2s-13.6-44.6-33.2-54.2Z" fill="#ff412c" stroke-width="0"/>
    <path d="M354.3,282.9v-122.1l6.1,3c21.6,10.6,35.6,33.4,35.6,58s-14,47.4-35.6,58l-6.1,3ZM362.8,175v93.7c15.2-10.2,24.7-27.9,24.7-46.9s-9.5-36.7-24.7-46.9Z" fill="#a02b25" stroke-width="0"/>
  </g>
  <g>
    <path d="M42.5,276v-108.4c-19.6,9.6-33.2,30.3-33.2,54.2s13.6,44.6,33.2,54.2Z" fill="#ffb700" stroke-width="0"/>
    <path d="M46.7,282.9l-6.1-3c-21.6-10.6-35.6-33.4-35.6-58s14-47.4,35.6-58l6.1-3v122.1ZM38.2,175c-15.2,10.2-24.7,27.9-24.7,46.9s9.5,36.7,24.7,46.9v-93.7Z" fill="#aa6c1a" stroke-width="0"/>
  </g>
  <path d="M195,124.8c12.8,0,26.4.9,33.8,1.4,20.9,1.4,40.6,10.2,55.7,24.7,15.5,15,24.7,35.1,25.9,56.7.3,5.7.6,20.6,0,28.8-1.8,25.6-10.4,45.6-25.3,59.4-13.7,12.6-32.7,20.1-56.5,22.2-5.6.5-16.5.8-28.6.8s-22.5-.3-27.4-.8c-24.1-2.5-43.4-10.2-57.3-23-15.1-13.9-23.4-33.5-24.6-58.4-.6-12.8-.6-22.5,0-28.6,4.6-47.4,31.6-74.2,82.4-82,5.6-.9,13-1.3,22-1.3M195,114.9c-8.4,0-16.7.4-23.5,1.4-48.3,7.4-85.1,32.9-90.8,90.8-.9,8.7-.4,21.3,0,30.1,2.8,57.9,41,85.7,90.8,90.8,5.6.6,16.9.9,28.4.9s23.2-.3,29.5-.9c49.4-4.5,86.6-31.4,90.8-90.8.6-8.8.3-24.3,0-30.1-2.8-50.9-43.9-87.7-90.8-90.8-9.2-.6-22-1.4-34.4-1.4h0Z" fill="#727272" stroke-width="0"/>
  <circle cx="130.7" cy="209.3" r="25.8" fill="#000" stroke-width="0"/>
  <circle cx="268.6" cy="209.3" r="25.8" fill="#000" stroke-width="0"/>
  <g>
    <path d="M199.7,258.7c-17.4,0-28.3-8.6-32.4-25.5-.6-2.7,1-5.3,3.7-6,2.7-.6,5.3,1,6,3.7,3,12.6,9.8,17.9,22.7,17.9s21.1-5.7,22.6-17.4c.3-2.7,2.8-4.6,5.5-4.3,2.7.3,4.6,2.8,4.3,5.5-2.1,16.8-13.7,26.1-32.5,26.1Z" fill="#fff" stroke-width="0"/>
    <path d="M172.1,227c-.4,0-.8,0-1.2.1-2.7.6-4.3,3.3-3.7,6,4,16.9,14.9,25.5,32.4,25.5s30.3-9.3,32.5-26.1c.3-2.7-1.6-5.2-4.3-5.5-.2,0-.4,0-.6,0-2.5,0-4.6,1.8-4.9,4.3-1.5,11.7-8.9,17.4-22.6,17.4s-19.7-5.4-22.7-17.9c-.5-2.3-2.6-3.8-4.8-3.8h0Z" fill="#000" stroke-width="0"/>
  </g>
  <g>
    <rect x="314.6" y="155.2" width="48.2" height="133.2" rx="5.6" ry="5.6" fill="#03d1a9" stroke-width="0"/>
    <path d="M354.9,292.7h-32.4c-6.7,0-12.2-5.5-12.2-12.2v-117.4c0-6.7,5.5-12.2,12.2-12.2h32.4c6.7,0,12.2,5.5,12.2,12.2v117.4c0,6.7-5.5,12.2-12.2,12.2ZM322.5,159.5c-2,0-3.7,1.6-3.7,3.7v117.4c0,2,1.6,3.7,3.7,3.7h32.4c2,0,3.7-1.6,3.7-3.7v-117.4c0-2-1.6-3.7-3.7-3.7h-32.4Z" fill="#127769" stroke-width="0"/>
  </g>
  <g>
    <rect x="38.2" y="155.2" width="48.2" height="133.2" rx="5.6" ry="5.6" transform="translate(124.6 443.7) rotate(-180)" fill="#03d1a9" stroke-width="0"/>
    <path d="M78.5,292.7h-32.4c-6.7,0-12.2-5.5-12.2-12.2v-117.4c0-6.7,5.5-12.2,12.2-12.2h32.4c6.7,0,12.2,5.5,12.2,12.2v117.4c0,6.7-5.5,12.2-12.2,12.2ZM46.1,159.5c-2,0-3.7,1.6-3.7,3.7v117.4c0,2,1.6,3.7,3.7,3.7h32.4c2,0,3.7-1.6,3.7-3.7v-117.4c0-2-1.6-3.7-3.7-3.7h-32.4Z" fill="#127769" stroke-width="0"/>
  </g>
  <path d="M347.2,144.9h-18.1c0-47.1-58-85.4-129.3-85.4s-129.3,38.3-129.3,85.4h-18.1c0-27.7,15.7-53.7,44.2-73,27.7-18.8,64.3-29.1,103.2-29.1s75.5,10.3,103.2,29.1c28.5,19.3,44.2,45.2,44.2,73Z" fill="#686868" stroke-width="0"/>
</svg>